<svg width="336" height="80" viewBox="0 0 336 80" fill="none" xmlns="http://www.w3.org/2000/svg">
<rect x="1.5" y="1.5" width="333" height="77" rx="30.5" fill="#60A5FA" stroke="white" stroke-width="3"/>
<path d="M33.917 50.28C32.5543 50.28 31.3596 50.028 30.333 49.524C29.3063 49.0013 28.5036 48.2827 27.925 47.368C27.365 46.4347 27.085 45.352 27.085 44.12V35.44C27.085 34.1893 27.365 33.1067 27.925 32.192C28.5036 31.2773 29.3063 30.568 30.333 30.064C31.3596 29.5413 32.5543 29.28 33.917 29.28C35.2983 29.28 36.493 29.5413 37.501 30.064C38.5276 30.568 39.321 31.2773 39.881 32.192C40.4596 33.1067 40.749 34.1893 40.749 35.44H36.549C36.549 34.6187 36.3156 33.9933 35.849 33.564C35.401 33.1347 34.757 32.92 33.917 32.92C33.077 32.92 32.4236 33.1347 31.957 33.564C31.509 33.9933 31.285 34.6187 31.285 35.44V44.12C31.285 44.9227 31.509 45.548 31.957 45.996C32.4236 46.4253 33.077 46.64 33.917 46.64C34.757 46.64 35.401 46.4253 35.849 45.996C36.3156 45.548 36.549 44.9227 36.549 44.12H40.749C40.749 45.352 40.4596 46.4347 39.881 47.368C39.321 48.2827 38.5276 49.0013 37.501 49.524C36.493 50.028 35.2983 50.28 33.917 50.28ZM42.782 50L47.794 29.56H53.114L58.182 50H53.898L52.918 45.38H48.046L47.066 50H42.782ZM48.746 42.02H52.19L51.21 37.092C51.0794 36.3827 50.9394 35.6827 50.79 34.992C50.6594 34.2827 50.5567 33.732 50.482 33.34C50.4074 33.732 50.3047 34.2733 50.174 34.964C50.062 35.6547 49.9314 36.3547 49.782 37.064L48.746 42.02ZM60.0471 50V29.56H65.1711L67.2431 38.296L69.3151 29.56H74.4951V50H70.6591V42.16C70.6591 40.7973 70.6964 39.4627 70.7711 38.156C70.8644 36.8493 70.9764 35.608 71.1071 34.432C71.2378 33.256 71.3591 32.192 71.4711 31.24L68.8951 41.32H65.5351L63.0151 31.492C63.1458 32.2947 63.2764 33.256 63.4071 34.376C63.5378 35.496 63.6498 36.7187 63.7431 38.044C63.8364 39.3507 63.8831 40.7227 63.8831 42.16V50H60.0471ZM77.9002 50V29.56H90.5002V33.2H82.0162V37.792H89.5202V41.264H82.0162V46.36H90.5002V50H77.9002ZM94.2972 50V29.56H100.849C102.305 29.56 103.565 29.812 104.629 30.316C105.693 30.82 106.515 31.5387 107.093 32.472C107.691 33.4053 107.989 34.5067 107.989 35.776C107.989 37.1013 107.663 38.2867 107.009 39.332C106.375 40.3773 105.507 41.1333 104.405 41.6L108.269 50H103.705L100.401 42.272H98.4412V50H94.2972ZM98.4412 38.632H100.849C101.783 38.632 102.501 38.3987 103.005 37.932C103.528 37.4653 103.789 36.812 103.789 35.972C103.789 35.0947 103.528 34.4133 103.005 33.928C102.501 33.4427 101.783 33.2 100.849 33.2H98.4412V38.632ZM109.938 50L114.95 29.56H120.27L125.338 50H121.054L120.074 45.38H115.202L114.222 50H109.938ZM115.902 42.02H119.346L118.366 37.092C118.236 36.3827 118.096 35.6827 117.946 34.992C117.816 34.2827 117.713 33.732 117.638 33.34C117.564 33.732 117.461 34.2733 117.33 34.964C117.218 35.6547 117.088 36.3547 116.938 37.064L115.902 42.02ZM145.056 50V46.22H149.116V33.34H145.056V29.56H157.376V33.34H153.316V46.22H157.376V50H145.056ZM161.285 50V29.56H166.185L171.477 45.38C171.421 44.6893 171.356 43.896 171.281 43C171.207 42.0853 171.141 41.18 171.085 40.284C171.048 39.3693 171.029 38.5947 171.029 37.96V29.56H174.725V50H169.825L164.589 34.18C164.645 34.7773 164.701 35.4867 164.757 36.308C164.813 37.1293 164.86 37.96 164.897 38.8C164.953 39.64 164.981 40.3867 164.981 41.04V50H161.285ZM184.851 50.28C183.413 50.28 182.153 50.028 181.071 49.524C180.007 49.02 179.176 48.3107 178.579 47.396C178 46.4627 177.711 45.3707 177.711 44.12H181.799C181.799 44.8853 182.069 45.5013 182.611 45.968C183.171 46.416 183.917 46.64 184.851 46.64C185.765 46.64 186.475 46.4253 186.979 45.996C187.501 45.548 187.763 44.96 187.763 44.232C187.763 43.6533 187.595 43.14 187.259 42.692C186.923 42.2253 186.428 41.9173 185.775 41.768L183.283 41.18C181.677 40.8067 180.399 40.088 179.447 39.024C178.513 37.9413 178.047 36.6533 178.047 35.16C178.047 33.9467 178.308 32.9013 178.831 32.024C179.372 31.1467 180.137 30.4747 181.127 30.008C182.135 29.5227 183.32 29.28 184.683 29.28C186.064 29.28 187.249 29.5227 188.239 30.008C189.247 30.4747 190.021 31.1467 190.563 32.024C191.123 32.9013 191.403 33.9373 191.403 35.132H187.315C187.315 34.4227 187.081 33.872 186.615 33.48C186.148 33.0693 185.504 32.864 184.683 32.864C183.88 32.864 183.255 33.06 182.807 33.452C182.359 33.844 182.135 34.3667 182.135 35.02C182.135 35.5613 182.303 36 182.639 36.336C182.975 36.672 183.451 36.9147 184.067 37.064L186.643 37.652C188.248 38.0067 189.517 38.7813 190.451 39.976C191.403 41.152 191.879 42.5707 191.879 44.232C191.879 45.4453 191.589 46.5093 191.011 47.424C190.451 48.3387 189.639 49.048 188.575 49.552C187.529 50.0373 186.288 50.28 184.851 50.28ZM195.032 50V29.56H202.004C203.441 29.56 204.692 29.8307 205.756 30.372C206.838 30.9133 207.669 31.6693 208.248 32.64C208.845 33.6107 209.144 34.7493 209.144 36.056C209.144 37.344 208.845 38.4827 208.248 39.472C207.65 40.4427 206.82 41.1987 205.756 41.74C204.692 42.2813 203.441 42.552 202.004 42.552H199.232V50H195.032ZM199.232 38.912H202.004C202.9 38.912 203.609 38.6413 204.132 38.1C204.673 37.5587 204.944 36.8773 204.944 36.056C204.944 35.2347 204.673 34.5533 204.132 34.012C203.609 33.4707 202.9 33.2 202.004 33.2H199.232V38.912ZM212.213 50V29.56H224.813V33.2H216.329V37.792H223.833V41.264H216.329V46.36H224.813V50H212.213ZM235.386 50.28C234.023 50.28 232.828 50.028 231.802 49.524C230.775 49.0013 229.972 48.2827 229.394 47.368C228.834 46.4347 228.554 45.352 228.554 44.12V35.44C228.554 34.1893 228.834 33.1067 229.394 32.192C229.972 31.2773 230.775 30.568 231.802 30.064C232.828 29.5413 234.023 29.28 235.386 29.28C236.767 29.28 237.962 29.5413 238.97 30.064C239.996 30.568 240.79 31.2773 241.35 32.192C241.928 33.1067 242.218 34.1893 242.218 35.44H238.018C238.018 34.6187 237.784 33.9933 237.318 33.564C236.87 33.1347 236.226 32.92 235.386 32.92C234.546 32.92 233.892 33.1347 233.426 33.564C232.978 33.9933 232.754 34.6187 232.754 35.44V44.12C232.754 44.9227 232.978 45.548 233.426 45.996C233.892 46.4253 234.546 46.64 235.386 46.64C236.226 46.64 236.87 46.4253 237.318 45.996C237.784 45.548 238.018 44.9227 238.018 44.12H242.218C242.218 45.352 241.928 46.4347 241.35 47.368C240.79 48.2827 239.996 49.0013 238.97 49.524C237.962 50.028 236.767 50.28 235.386 50.28ZM249.851 50V33.34H244.671V29.56H259.231V33.34H254.051V50H249.851ZM262.58 50V46.22H266.64V33.34H262.58V29.56H274.9V33.34H270.84V46.22H274.9V50H262.58ZM285.529 50.28C283.476 50.28 281.842 49.7013 280.629 48.544C279.416 47.3867 278.809 45.8187 278.809 43.84V35.72C278.809 33.7227 279.416 32.1547 280.629 31.016C281.842 29.8587 283.476 29.28 285.529 29.28C287.582 29.28 289.216 29.8587 290.429 31.016C291.642 32.1547 292.249 33.7227 292.249 35.72V43.84C292.249 45.8187 291.642 47.3867 290.429 48.544C289.216 49.7013 287.582 50.28 285.529 50.28ZM285.529 46.64C286.369 46.64 286.994 46.4253 287.405 45.996C287.834 45.548 288.049 44.9227 288.049 44.12V35.44C288.049 34.6187 287.844 33.9933 287.433 33.564C287.022 33.1347 286.388 32.92 285.529 32.92C284.67 32.92 284.036 33.1347 283.625 33.564C283.214 33.9933 283.009 34.6187 283.009 35.44V44.12C283.009 44.9227 283.214 45.548 283.625 45.996C284.054 46.4253 284.689 46.64 285.529 46.64ZM295.598 50V29.56H300.498L305.79 45.38C305.734 44.6893 305.669 43.896 305.594 43C305.519 42.0853 305.454 41.18 305.398 40.284C305.361 39.3693 305.342 38.5947 305.342 37.96V29.56H309.038V50H304.138L298.902 34.18C298.958 34.7773 299.014 35.4867 299.07 36.308C299.126 37.1293 299.173 37.96 299.21 38.8C299.266 39.64 299.294 40.3867 299.294 41.04V50H295.598Z" fill="white"/>
</svg>
