<svg width="186" height="80" viewBox="0 0 186 80" fill="none" xmlns="http://www.w3.org/2000/svg">
<rect x="1.5" y="1.5" width="183" height="77" rx="30.5" fill="#C084FC" stroke="white" stroke-width="3"/>
<path d="M34.9678 50.28C33.6051 50.28 32.4104 50.028 31.3838 49.524C30.3571 49.0013 29.5544 48.2827 28.9758 47.368C28.4158 46.4347 28.1358 45.352 28.1358 44.12V35.44C28.1358 34.1893 28.4158 33.1067 28.9758 32.192C29.5544 31.2773 30.3571 30.568 31.3838 30.064C32.4104 29.5413 33.6051 29.28 34.9678 29.28C36.3491 29.28 37.5438 29.5413 38.5518 30.064C39.5784 30.568 40.3718 31.2773 40.9318 32.192C41.5104 33.1067 41.7998 34.1893 41.7998 35.44H37.5998C37.5998 34.6187 37.3664 33.9933 36.8998 33.564C36.4518 33.1347 35.8078 32.92 34.9678 32.92C34.1278 32.92 33.4744 33.1347 33.0078 33.564C32.5598 33.9933 32.3358 34.6187 32.3358 35.44V44.12C32.3358 44.9227 32.5598 45.548 33.0078 45.996C33.4744 46.4253 34.1278 46.64 34.9678 46.64C35.8078 46.64 36.4518 46.4253 36.8998 45.996C37.3664 45.548 37.5998 44.9227 37.5998 44.12H41.7998C41.7998 45.352 41.5104 46.4347 40.9318 47.368C40.3718 48.2827 39.5784 49.0013 38.5518 49.524C37.5438 50.028 36.3491 50.28 34.9678 50.28ZM51.5328 50.28C49.4795 50.28 47.8461 49.7013 46.6328 48.544C45.4195 47.3867 44.8128 45.8187 44.8128 43.84V35.72C44.8128 33.7227 45.4195 32.1547 46.6328 31.016C47.8461 29.8587 49.4795 29.28 51.5328 29.28C53.5861 29.28 55.2195 29.8587 56.4328 31.016C57.6461 32.1547 58.2528 33.7227 58.2528 35.72V43.84C58.2528 45.8187 57.6461 47.3867 56.4328 48.544C55.2195 49.7013 53.5861 50.28 51.5328 50.28ZM51.5328 46.64C52.3728 46.64 52.9981 46.4253 53.4088 45.996C53.8381 45.548 54.0528 44.9227 54.0528 44.12V35.44C54.0528 34.6187 53.8475 33.9933 53.4368 33.564C53.0261 33.1347 52.3915 32.92 51.5328 32.92C50.6741 32.92 50.0395 33.1347 49.6288 33.564C49.2181 33.9933 49.0128 34.6187 49.0128 35.44V44.12C49.0128 44.9227 49.2181 45.548 49.6288 45.996C50.0581 46.4253 50.6928 46.64 51.5328 46.64ZM61.6019 50V29.56H66.5019L71.7939 45.38C71.7379 44.6893 71.6725 43.896 71.5979 43C71.5232 42.0853 71.4579 41.18 71.4019 40.284C71.3645 39.3693 71.3459 38.5947 71.3459 37.96V29.56H75.0419V50H70.1419L64.9059 34.18C64.9619 34.7773 65.0179 35.4867 65.0739 36.308C65.1299 37.1293 65.1765 37.96 65.2139 38.8C65.2699 39.64 65.2979 40.3867 65.2979 41.04V50H61.6019ZM82.4789 50L77.4109 29.56H81.7509L84.5789 42.468C84.6723 42.916 84.7843 43.4853 84.9149 44.176C85.0643 44.8667 85.1763 45.4547 85.2509 45.94C85.3256 45.4547 85.4189 44.8667 85.5309 44.176C85.6429 43.4853 85.7456 42.9067 85.8389 42.44L88.5829 29.56H92.8109L87.7989 50H82.4789ZM95.74 50V29.56H108.34V33.2H99.856V37.792H107.36V41.264H99.856V46.36H108.34V50H95.74ZM116.589 50V42.72L110.709 29.56H115.105L117.681 35.72C117.942 36.336 118.166 36.9893 118.353 37.68C118.558 38.3707 118.698 38.9307 118.773 39.36C118.866 38.9307 118.997 38.3707 119.165 37.68C119.352 36.9893 119.566 36.336 119.809 35.72L122.301 29.56H126.669L120.789 42.72V50H116.589ZM135.478 50.28C133.425 50.28 131.791 49.7013 130.578 48.544C129.365 47.3867 128.758 45.8187 128.758 43.84V35.72C128.758 33.7227 129.365 32.1547 130.578 31.016C131.791 29.8587 133.425 29.28 135.478 29.28C137.531 29.28 139.165 29.8587 140.378 31.016C141.591 32.1547 142.198 33.7227 142.198 35.72V43.84C142.198 45.8187 141.591 47.3867 140.378 48.544C139.165 49.7013 137.531 50.28 135.478 50.28ZM135.478 46.64C136.318 46.64 136.943 46.4253 137.354 45.996C137.783 45.548 137.998 44.9227 137.998 44.12V35.44C137.998 34.6187 137.793 33.9933 137.382 33.564C136.971 33.1347 136.337 32.92 135.478 32.92C134.619 32.92 133.985 33.1347 133.574 33.564C133.163 33.9933 132.958 34.6187 132.958 35.44V44.12C132.958 44.9227 133.163 45.548 133.574 45.996C134.003 46.4253 134.638 46.64 135.478 46.64ZM145.715 50V29.56H152.267C153.723 29.56 154.983 29.812 156.047 30.316C157.111 30.82 157.933 31.5387 158.511 32.472C159.109 33.4053 159.407 34.5067 159.407 35.776C159.407 37.1013 159.081 38.2867 158.427 39.332C157.793 40.3773 156.925 41.1333 155.823 41.6L159.687 50H155.123L151.819 42.272H149.859V50H145.715ZM149.859 38.632H152.267C153.201 38.632 153.919 38.3987 154.423 37.932C154.946 37.4653 155.207 36.812 155.207 35.972C155.207 35.0947 154.946 34.4133 154.423 33.928C153.919 33.4427 153.201 33.2 152.267 33.2H149.859V38.632Z" fill="white"/>
</svg>
