<?xml version="1.0" encoding="utf-8"?>
<!-- Generator: Adobe Illustrator 28.0.0, SVG Export Plug-In . SVG Version: 6.00 Build 0)  -->
<svg version="1.1" id="Layer_1" xmlns="http://www.w3.org/2000/svg" xmlns:xlink="http://www.w3.org/1999/xlink" x="0px" y="0px"
	 viewBox="0 0 232.6 80" style="enable-background:new 0 0 232.6 80;" xml:space="preserve">
<style type="text/css">
	.st0{fill:#FB923C;stroke:#FFFFFF;stroke-width:3;}
	.st1{fill:#FFFFFF;}
</style>
<path class="st0" d="M32,1.5h168c16.8,0,30.5,13.7,30.5,30.5v16c0,16.8-13.7,30.5-30.5,30.5H32C15.2,78.5,1.5,64.8,1.5,48V32
	C1.5,15.2,15.2,1.5,32,1.5z"/>
<g>
	<path class="st1" d="M36.4,50.4c-2.2,0-4-0.6-5.3-1.8s-1.9-2.8-1.9-4.9V28.2h4.5v15.5c0,0.9,0.2,1.6,0.7,2.1c0.5,0.5,1.1,0.7,2,0.7
		c0.8,0,1.5-0.2,2-0.7s0.7-1.2,0.7-2.1V28.2h4.5v15.5c0,2.1-0.6,3.7-1.9,4.9S38.6,50.4,36.4,50.4z"/>
	<path class="st1" d="M48,50.1V28.2h4.5V46h8.8v4H48z"/>
	<path class="st1" d="M67.1,50.1V32.2h-5.5v-4.1h15.6v4.1h-5.5v17.8H67.1z"/>
	<path class="st1" d="M80.5,50.1V28.2h7c1.6,0,2.9,0.3,4,0.8c1.1,0.5,2,1.3,2.7,2.3c0.6,1,0.9,2.2,0.9,3.5c0,1.4-0.3,2.7-1,3.8
		c-0.7,1.1-1.6,1.9-2.8,2.4l4.1,9h-4.9L87,41.8h-2.1v8.3H80.5z M84.9,37.9h2.6c1,0,1.8-0.2,2.3-0.8c0.5-0.5,0.8-1.2,0.8-2.1
		c0-0.9-0.3-1.7-0.8-2.2c-0.6-0.5-1.3-0.8-2.3-0.8h-2.6V37.9z"/>
	<path class="st1" d="M98.1,50.1l5.4-21.9h5.7l5.4,21.9H110l-1.1-5h-5.2l-1.1,5H98.1z M104.5,41.5h3.7l-1.1-5.3
		c-0.1-0.8-0.3-1.5-0.4-2.3c-0.2-0.8-0.3-1.3-0.3-1.8c-0.1,0.4-0.2,1-0.3,1.7c-0.1,0.7-0.3,1.5-0.4,2.2L104.5,41.5z"/>
	<path class="st1" d="M124.4,50.4c-1.5,0-2.9-0.3-4-0.8c-1.2-0.5-2-1.3-2.7-2.3c-0.6-1-0.9-2.2-0.9-3.5h4.4c0,0.8,0.3,1.5,0.9,2
		s1.4,0.7,2.4,0.7c1,0,1.7-0.2,2.3-0.7c0.5-0.5,0.8-1.1,0.8-1.9c0-0.6-0.2-1.2-0.5-1.7c-0.4-0.5-0.9-0.8-1.6-1l-2.7-0.6
		c-1.7-0.4-3.1-1.2-4.1-2.3c-1-1.1-1.5-2.5-1.5-4.1c0-1.3,0.3-2.4,0.9-3.4s1.4-1.7,2.5-2.2c1.1-0.5,2.3-0.8,3.8-0.8
		c1.5,0,2.8,0.3,3.8,0.8c1.1,0.5,1.9,1.2,2.5,2.2s0.9,2,0.9,3.3H127c0-0.8-0.3-1.4-0.8-1.8c-0.5-0.4-1.2-0.6-2.1-0.6
		c-0.9,0-1.5,0.2-2,0.6c-0.5,0.4-0.7,1-0.7,1.7c0,0.6,0.2,1,0.5,1.4c0.4,0.4,0.9,0.6,1.5,0.8l2.8,0.6c1.7,0.4,3.1,1.2,4.1,2.5
		c1,1.3,1.5,2.8,1.5,4.6c0,1.3-0.3,2.4-0.9,3.4s-1.5,1.7-2.6,2.3C127.2,50.1,125.9,50.4,124.4,50.4z"/>
	<path class="st1" d="M142.3,50.4c-2.2,0-4-0.6-5.2-1.9c-1.3-1.2-2-2.9-2-5v-8.7c0-2.1,0.6-3.8,2-5.1c1.3-1.2,3-1.8,5.2-1.8
		s3.9,0.6,5.2,1.8c1.3,1.2,2,2.9,2,5.1v8.7c0,2.1-0.7,3.8-2,5C146.3,49.8,144.5,50.4,142.3,50.4z M142.3,46.5c0.9,0,1.6-0.2,2-0.7
		c0.4-0.5,0.7-1.1,0.7-2v-9.3c0-0.9-0.2-1.5-0.7-2c-0.4-0.5-1.1-0.7-2-0.7s-1.6,0.2-2,0.7c-0.4,0.5-0.7,1.1-0.7,2v9.3
		c0,0.9,0.2,1.5,0.7,2C140.7,46.3,141.4,46.5,142.3,46.5z"/>
	<path class="st1" d="M152.9,50.1V28.2h5.2l5.7,17c-0.1-0.7-0.1-1.6-0.2-2.6s-0.1-1.9-0.2-2.9c-0.1-1-0.1-1.8-0.1-2.5v-9h4v21.9H162
		l-5.6-17c0.1,0.6,0.1,1.4,0.2,2.3c0.1,0.9,0.1,1.8,0.2,2.7s0.1,1.7,0.1,2.4v9.6H152.9z"/>
	<path class="st1" d="M171,50.1v-4h4.3V32.2H171v-4.1h13.2v4.1h-4.3V46h4.3v4H171z"/>
	<path class="st1" d="M194.9,50.4c-1.5,0-2.7-0.3-3.8-0.8c-1.1-0.5-2-1.3-2.6-2.3s-0.9-2.1-0.9-3.5v-9.3c0-1.3,0.3-2.5,0.9-3.5
		c0.6-1,1.5-1.7,2.6-2.3c1.1-0.5,2.4-0.8,3.8-0.8c1.5,0,2.8,0.3,3.9,0.8c1.1,0.6,1.9,1.3,2.5,2.3c0.6,1,0.9,2.1,0.9,3.5h-4.5
		c0-0.9-0.2-1.5-0.7-2c-0.5-0.5-1.2-0.7-2.1-0.7c-0.9,0-1.6,0.2-2.1,0.7c-0.5,0.5-0.7,1.1-0.7,2v9.3c0,0.9,0.2,1.5,0.7,2
		c0.5,0.5,1.2,0.7,2.1,0.7c0.9,0,1.6-0.2,2.1-0.7c0.5-0.5,0.7-1.1,0.7-2h4.5c0,1.3-0.3,2.5-0.9,3.5c-0.6,1-1.5,1.8-2.5,2.3
		S196.4,50.4,194.9,50.4z"/>
</g>
</svg>
