# Blender 4.1.1
# www.blender.org
mtllib camera.mtl
o camera.001
v -12.897585 0.099443 14.981407
v 12.455750 0.099445 14.981406
v -12.897586 14.348164 14.981407
v 12.455748 14.348166 14.981406
v -12.897586 0.099443 -15.018593
v 12.455748 0.099445 -15.018595
v -12.897588 14.348164 -15.018593
v 12.455748 14.348166 -15.018595
v -12.897587 4.319124 -15.018593
v 12.455748 4.319126 -15.018595
v -12.897588 14.348164 -15.018593
v 12.455748 14.348166 -15.018595
v -12.897587 4.319124 -15.077662
v 12.455748 4.319126 -15.077663
v -12.897588 14.348164 -15.077662
v 12.455748 14.348166 -15.077663
v -12.897585 4.248724 14.981407
v 12.455750 4.248725 14.981406
v -12.897586 14.348164 14.981407
v 12.455748 14.348166 14.981406
v -12.897585 4.248724 14.922338
v 12.455750 4.248725 14.922336
v -12.897586 14.348164 14.922338
v 12.455748 14.348166 14.922336
vn -0.0000 1.0000 -0.0000
vn -1.0000 -0.0000 -0.0000
vn 1.0000 -0.0000 -0.0000
vn -0.0000 -1.0000 -0.0000
vt 0.000000 0.000000
vt 0.785334 0.000000
vt 0.000000 2.540000
vt 0.785334 2.540000
vt 0.904793 0.000000
vt 0.904793 2.540000
vt 0.636842 0.000000
vt 0.000000 0.005000
vt 0.636842 0.005000
vt 0.785334 0.005000
vt 0.641313 0.000000
vt 0.641313 0.005000
s 0
usemtl 191,191,191.004
f 3/1/1 4/2/1 7/3/1
f 7/3/1 4/2/1 8/4/1
f 1/1/2 3/5/2 5/3/2
f 5/3/2 3/5/2 7/6/2
f 4/1/3 2/5/3 8/3/3
f 8/3/3 2/5/3 6/6/3
f 9/1/2 11/7/2 13/8/2
f 13/8/2 11/7/2 15/9/2
f 10/1/4 9/2/4 14/8/4
f 14/8/4 9/2/4 13/10/4
f 12/1/3 10/7/3 16/8/3
f 16/8/3 10/7/3 14/9/3
f 11/1/1 12/2/1 15/8/1
f 15/8/1 12/2/1 16/10/1
f 20/1/3 18/11/3 24/8/3
f 24/8/3 18/11/3 22/12/3
f 19/1/1 20/2/1 23/8/1
f 23/8/1 20/2/1 24/10/1
f 17/1/2 19/11/2 21/8/2
f 21/8/2 19/11/2 23/12/2
f 18/1/4 17/2/4 22/8/4
f 22/8/4 17/2/4 21/10/4
