# Blender 4.1.1
# www.blender.org
mtllib photoelectric.mtl
o sensor.001
v -0.057051 -0.054664 -2.690479
v -0.057051 -0.054664 2.981417
v -0.057051 2.629832 -2.690479
v -0.057051 2.629832 2.981417
v 0.074949 -0.054664 -2.690479
v 0.074949 -0.054664 2.981417
v 0.074949 0.732884 1.628057
v 0.074949 0.737876 -1.138435
v 0.074949 0.745040 1.504613
v 0.074949 0.745040 1.751513
v 0.074949 0.749948 -1.260907
v 0.074949 0.749948 -1.015975
v 0.074949 0.781040 1.385922
v 0.074949 0.781040 1.870206
v 0.074949 0.785660 -1.378675
v 0.074949 0.785660 -0.898207
v 0.074949 0.839516 1.276518
v 0.074949 0.839516 1.979610
v 0.074949 0.843680 -1.487203
v 0.074949 0.843680 -0.789679
v 0.074949 0.918212 1.180638
v 0.074949 0.918212 2.075489
v 0.074949 0.921752 -1.582327
v 0.074949 0.921752 -0.694543
v 0.074949 1.014092 1.101941
v 0.074949 1.014092 2.154185
v 0.074949 1.016876 -1.660399
v 0.074949 1.016876 -0.616482
v 0.074949 1.123496 1.043465
v 0.074949 1.123496 2.212662
v 0.074949 1.125404 -1.718407
v 0.074949 1.125404 -0.558462
v 0.074949 1.242188 1.007466
v 0.074949 1.242188 2.248661
v 0.074949 1.243172 -1.754131
v 0.074949 1.243172 -0.522738
v 0.074949 1.365644 -1.766191
v 0.074949 1.365644 -0.510679
v 0.074949 1.365644 0.995309
v 0.074949 1.365644 2.260817
v 0.074949 1.488104 -1.754131
v 0.074949 1.488104 -0.522738
v 0.074949 1.489088 1.007466
v 0.074949 1.489088 2.248661
v 0.074949 1.605872 -1.718407
v 0.074949 1.605872 -0.558463
v 0.074949 1.607780 1.043465
v 0.074949 1.607780 2.212662
v 0.074949 1.714400 -1.660399
v 0.074949 1.714400 -0.616483
v 0.074949 1.717184 1.101941
v 0.074949 1.717184 2.154185
v 0.074949 1.809524 -1.582327
v 0.074949 1.809524 -0.694543
v 0.074949 1.813064 1.180637
v 0.074949 1.813064 2.075489
v 0.074949 1.887596 -1.487203
v 0.074949 1.887596 -0.789679
v 0.074949 1.891760 1.276517
v 0.074949 1.891760 1.979610
v 0.074949 1.945616 -1.378675
v 0.074949 1.945616 -0.898207
v 0.074949 1.950236 1.385922
v 0.074949 1.950236 1.870206
v 0.074949 1.981328 -1.260907
v 0.074949 1.981328 -1.015975
v 0.074949 1.986236 1.504613
v 0.074949 1.986236 1.751513
v 0.074949 1.993400 -1.138435
v 0.074949 1.998392 1.628057
v 0.074949 2.629832 -2.690479
v 0.074949 2.629832 2.981417
v 0.674949 0.732884 1.628057
v 0.674949 0.737876 -1.138435
v 0.674949 0.745040 1.504613
v 0.674949 0.745040 1.751513
v 0.674949 0.749948 -1.260907
v 0.674949 0.749948 -1.015975
v 0.674949 0.781040 1.385922
v 0.674949 0.781040 1.870206
v 0.674949 0.785660 -1.378675
v 0.674949 0.785660 -0.898207
v 0.674949 0.839516 1.276518
v 0.674949 0.839516 1.979610
v 0.674949 0.843680 -1.487203
v 0.674949 0.843680 -0.789679
v 0.674949 0.918212 1.180638
v 0.674949 0.918212 2.075489
v 0.674949 0.921752 -1.582327
v 0.674949 0.921752 -0.694543
v 0.674949 1.014092 1.101941
v 0.674949 1.014092 2.154185
v 0.674949 1.016876 -1.660399
v 0.674949 1.016876 -0.616482
v 0.674949 1.123496 1.043465
v 0.674949 1.123496 2.212662
v 0.674949 1.125404 -1.718407
v 0.674949 1.125404 -0.558462
v 0.674949 1.242188 1.007466
v 0.674949 1.242188 2.248661
v 0.674949 1.243172 -1.754131
v 0.674949 1.243172 -0.522738
v 0.674949 1.365644 -1.766191
v 0.674949 1.365644 -0.510679
v 0.674949 1.365644 0.995309
v 0.674949 1.365644 2.260817
v 0.674949 1.488104 -1.754131
v 0.674949 1.488104 -0.522738
v 0.674949 1.489088 1.007466
v 0.674949 1.489088 2.248661
v 0.674949 1.605872 -1.718407
v 0.674949 1.605872 -0.558463
v 0.674949 1.607780 1.043465
v 0.674949 1.607780 2.212662
v 0.674949 1.714400 -1.660399
v 0.674949 1.714400 -0.616483
v 0.674949 1.717184 1.101941
v 0.674949 1.717184 2.154185
v 0.674949 1.809524 -1.582327
v 0.674949 1.809524 -0.694543
v 0.674949 1.813064 1.180637
v 0.674949 1.813064 2.075489
v 0.674949 1.887596 -1.487203
v 0.674949 1.887596 -0.789679
v 0.674949 1.891760 1.276517
v 0.674949 1.891760 1.979610
v 0.674949 1.945616 -1.378675
v 0.674949 1.945616 -0.898207
v 0.674949 1.950236 1.385922
v 0.674949 1.950236 1.870206
v 0.674949 1.981328 -1.260907
v 0.674949 1.981328 -1.015975
v 0.674949 1.986236 1.504613
v 0.674949 1.986236 1.751513
v 0.674949 1.993400 -1.138435
v 0.674949 1.998392 1.628057
vn -0.0000 -0.0000 1.0000
vn -0.0000 1.0000 -0.0000
vn -0.0000 -0.0000 -1.0000
vn -0.0000 -1.0000 -0.0000
vn 1.0000 -0.0000 -0.0000
vn -1.0000 -0.0000 -0.0000
vn -0.0000 -0.1951 -0.9808
vn -0.0000 0.1951 -0.9808
vn -0.0000 0.3827 -0.9239
vn -0.0000 0.3826 -0.9239
vn -0.0000 0.5556 -0.8315
vn -0.0000 0.7071 -0.7071
vn -0.0000 0.8315 -0.5556
vn -0.0000 0.9239 -0.3827
vn -0.0000 0.9808 -0.1951
vn -0.0000 0.9239 -0.3826
vn -0.0000 0.9808 0.1951
vn -0.0000 0.9239 0.3826
vn -0.0000 0.9239 0.3827
vn -0.0000 0.8315 0.5556
vn -0.0000 0.7071 0.7071
vn -0.0000 0.5556 0.8315
vn -0.0000 0.3827 0.9239
vn -0.0000 0.1951 0.9808
vn -0.0000 0.3826 0.9239
vn -0.0000 -0.1951 0.9808
vn -0.0000 -0.3827 0.9239
vn -0.0000 -0.3826 0.9239
vn -0.0000 -0.5556 0.8315
vn -0.0000 -0.7071 0.7071
vn -0.0001 -0.8315 0.5556
vn -0.0000 -0.8315 0.5556
vn -0.0000 -0.9239 0.3827
vn -0.0000 -0.9239 0.3826
vn -0.0000 -0.9808 0.1951
vn -0.0000 -0.9808 -0.1951
vn -0.0000 -0.9239 -0.3826
vn -0.0000 -0.9239 -0.3827
vn -0.0000 -0.8315 -0.5556
vn -0.0000 -0.7071 -0.7071
vn -0.0000 -0.5556 -0.8315
vn -0.0000 -0.3827 -0.9239
vn -0.0000 -0.3826 -0.9239
vt 0.000000 0.000000
vt 0.568217 0.000000
vt 0.000000 0.027940
vt 0.568217 0.027940
vt 1.200552 0.000000
vt 1.200552 0.027940
vt 0.402083 -0.009401
vt 0.600276 -0.284109
vt 0.404636 0.016522
vt 0.600276 0.284109
vt 0.402083 0.042445
vt 0.394522 0.067371
vt 0.382243 0.090344
vt 0.365718 0.110479
vt 0.345583 0.127004
vt 0.322610 0.139283
vt 0.297684 0.146844
vt 0.271761 0.149397
vt 0.245838 0.146844
vt -0.600276 0.284109
vt -0.287686 0.147882
vt -0.313815 0.150456
vt -0.339944 0.147882
vt -0.365069 0.140261
vt -0.388225 0.127884
vt -0.408521 0.111228
vt -0.425177 0.090932
vt -0.437554 0.067776
vt -0.445176 0.042651
vt -0.447749 0.016522
vt -0.600276 -0.284109
vt -0.445176 -0.009607
vt -0.437554 -0.034732
vt -0.425177 -0.057888
vt -0.408521 -0.078184
vt -0.388225 -0.094840
vt -0.365069 -0.107217
vt -0.339944 -0.114838
vt -0.313815 -0.117412
vt -0.287686 -0.114838
vt 0.245838 -0.113800
vt -0.262561 -0.107217
vt 0.220912 -0.106239
vt -0.239405 -0.094840
vt 0.197939 -0.093960
vt -0.219109 -0.078184
vt 0.177804 -0.077435
vt 0.161279 -0.057300
vt 0.394522 -0.034327
vt 0.382243 -0.057300
vt 0.365718 -0.077435
vt 0.345583 -0.093960
vt 0.322610 -0.106239
vt 0.297684 -0.113800
vt 0.271761 -0.116353
vt -0.202453 -0.057888
vt 0.149000 -0.034327
vt -0.190076 -0.034732
vt 0.141439 -0.009401
vt -0.182455 -0.009607
vt 0.138886 0.016522
vt -0.179881 0.016522
vt -0.182455 0.042651
vt 0.141439 0.042445
vt -0.190076 0.067776
vt 0.149000 0.067371
vt -0.202453 0.090932
vt 0.161279 0.090344
vt -0.219109 0.111228
vt 0.177804 0.110479
vt 0.197939 0.127004
vt -0.239405 0.127884
vt 0.220912 0.139283
vt -0.262561 0.140261
vt -0.127000 -0.026090
vt -0.000000 -0.026090
vt -0.127000 0.000000
vt -0.127000 0.026090
vt -0.000000 0.026090
vt -0.127000 0.052180
vt -0.000000 0.052180
vt -0.127000 0.078270
vt -0.000000 0.078270
vt -0.127000 0.104360
vt -0.000000 0.104360
vt -0.127000 0.130450
vt -0.000000 0.130450
vt -0.127000 0.156540
vt -0.000000 0.156540
vt -0.127000 0.182630
vt -0.000000 0.182630
vt -0.127000 0.208720
vt -0.000000 0.208720
vt -0.127000 0.234810
vt -0.000000 0.234810
vt -0.127000 0.260900
vt -0.000000 0.260900
vt -0.127000 0.286990
vt -0.000000 0.286990
vt -0.127000 0.313080
vt -0.000000 0.313080
vt -0.127000 0.339170
vt -0.000000 0.339170
vt -0.127000 0.365260
vt -0.000000 0.365260
vt -0.127000 0.391350
vt -0.000000 0.391350
vt -0.127000 0.417440
vt -0.000000 0.417440
vt -0.127000 -0.417440
vt -0.000000 -0.417440
vt -0.127000 -0.391350
vt -0.000000 -0.391350
vt -0.127000 -0.365260
vt -0.000000 -0.365260
vt -0.127000 -0.339170
vt -0.000000 -0.339170
vt -0.127000 -0.313080
vt -0.000000 -0.313080
vt -0.127000 -0.286990
vt -0.000000 -0.286990
vt -0.127000 -0.260900
vt -0.000000 -0.260900
vt -0.127000 -0.234810
vt -0.000000 -0.234810
vt -0.127000 -0.208720
vt -0.000000 -0.208720
vt -0.127000 -0.182630
vt -0.000000 -0.182630
vt -0.127000 -0.156540
vt -0.000000 -0.156540
vt -0.127000 -0.130450
vt -0.000000 -0.130450
vt -0.127000 -0.104360
vt -0.000000 -0.104360
vt -0.127000 -0.078270
vt -0.000000 -0.078270
vt -0.127000 -0.052180
vt -0.000000 -0.052180
vt -0.127000 -0.026298
vt -0.000000 -0.026298
vt -0.127000 0.026298
vt -0.000000 0.026298
vt -0.127000 0.052596
vt -0.000000 0.052596
vt -0.127000 0.078894
vt -0.000000 0.078894
vt -0.127000 0.105192
vt -0.000000 0.105192
vt -0.127000 0.131489
vt -0.000000 0.131489
vt -0.127000 0.157787
vt -0.000000 0.157787
vt -0.127000 0.184085
vt -0.000000 0.184085
vt -0.127000 0.210383
vt -0.000000 0.210383
vt -0.127000 0.236681
vt -0.000000 0.236681
vt -0.127000 0.262979
vt -0.000000 0.262979
vt -0.127000 0.289277
vt -0.000000 0.289277
vt -0.127000 0.315575
vt -0.000000 0.315575
vt -0.127000 0.341872
vt -0.000000 0.341872
vt -0.127000 0.368170
vt -0.000000 0.368170
vt -0.127000 0.394468
vt -0.000000 0.394468
vt -0.127000 0.420766
vt -0.000000 0.420766
vt -0.127000 -0.420766
vt -0.000000 -0.420766
vt -0.127000 -0.394468
vt -0.000000 -0.394468
vt -0.127000 -0.368170
vt -0.000000 -0.368170
vt -0.127000 -0.341872
vt -0.000000 -0.341872
vt -0.127000 -0.315575
vt -0.000000 -0.315575
vt -0.127000 -0.289277
vt -0.000000 -0.289277
vt -0.127000 -0.262979
vt -0.000000 -0.262979
vt -0.127000 -0.236681
vt -0.000000 -0.236681
vt -0.127000 -0.210383
vt -0.000000 -0.210383
vt -0.127000 -0.184085
vt -0.000000 -0.184085
vt -0.127000 -0.157787
vt -0.000000 -0.157787
vt -0.127000 -0.131489
vt -0.000000 -0.131489
vt -0.127000 -0.105192
vt -0.000000 -0.105192
vt -0.127000 -0.078894
vt -0.000000 -0.078894
vt -0.127000 -0.052596
vt -0.000000 -0.052596
vt 0.130322 0.025923
vt -0.130322 0.025923
vt 0.132875 0.000000
vt -0.132875 0.000000
vt 0.130322 -0.025923
vt -0.130322 -0.025923
vt 0.122761 -0.050849
vt -0.122761 -0.050849
vt 0.110482 -0.073822
vt -0.110482 -0.073822
vt 0.093957 -0.093957
vt -0.093957 -0.093957
vt 0.073822 -0.110482
vt -0.073822 -0.110482
vt 0.050849 -0.122761
vt -0.050849 -0.122761
vt 0.025923 -0.130322
vt -0.025923 -0.130322
vt 0.000000 -0.132875
vt -0.122761 0.050849
vt 0.122761 0.050849
vt -0.110482 0.073822
vt 0.110482 0.073822
vt -0.093957 0.093957
vt 0.093957 0.093957
vt -0.073822 0.110482
vt 0.073822 0.110482
vt -0.050849 0.122761
vt 0.050849 0.122761
vt -0.025923 0.130322
vt 0.025923 0.130322
vt 0.000000 0.132875
vt 0.131360 0.026129
vt -0.131360 0.026129
vt 0.133934 0.000000
vt -0.133934 0.000000
vt 0.131360 -0.026129
vt -0.131360 -0.026129
vt 0.123739 -0.051254
vt -0.123739 -0.051254
vt 0.111362 -0.074410
vt -0.111362 -0.074410
vt 0.094706 -0.094706
vt -0.094706 -0.094706
vt 0.074410 -0.111362
vt -0.074410 -0.111362
vt 0.051254 -0.123739
vt -0.051254 -0.123739
vt 0.026129 -0.131360
vt -0.026129 -0.131360
vt 0.000000 -0.133934
vt -0.123739 0.051254
vt 0.123739 0.051254
vt -0.111362 0.074410
vt 0.111362 0.074410
vt -0.094706 0.094706
vt 0.094706 0.094706
vt -0.074410 0.111362
vt 0.074410 0.111362
vt -0.051254 0.123739
vt 0.051254 0.123739
vt -0.026129 0.131360
vt 0.026129 0.131360
vt 0.000000 0.133934
s 0
usemtl 191,191,191.003
f 4/1/1 2/2/1 72/3/1
f 72/3/1 2/2/1 6/4/1
f 3/1/2 4/5/2 71/3/2
f 71/3/2 4/5/2 72/6/2
f 1/1/3 3/2/3 5/3/3
f 5/3/3 3/2/3 71/4/3
f 2/1/4 1/5/4 6/3/4
f 6/3/4 1/5/4 5/6/4
f 35/7/5 5/8/5 37/9/5
f 37/9/5 5/8/5 71/10/5
f 37/9/5 71/10/5 41/11/5
f 41/11/5 71/10/5 45/12/5
f 45/12/5 71/10/5 49/13/5
f 49/13/5 71/10/5 53/14/5
f 53/14/5 71/10/5 57/15/5
f 57/15/5 71/10/5 61/16/5
f 61/16/5 71/10/5 65/17/5
f 65/17/5 71/10/5 69/18/5
f 69/18/5 71/10/5 66/19/5
f 66/19/5 71/10/5 72/20/5
f 66/19/5 72/20/5 67/21/5
f 67/21/5 72/20/5 70/22/5
f 70/22/5 72/20/5 68/23/5
f 68/23/5 72/20/5 64/24/5
f 64/24/5 72/20/5 60/25/5
f 60/25/5 72/20/5 56/26/5
f 56/26/5 72/20/5 52/27/5
f 52/27/5 72/20/5 48/28/5
f 48/28/5 72/20/5 44/29/5
f 44/29/5 72/20/5 40/30/5
f 40/30/5 72/20/5 6/31/5
f 40/30/5 6/31/5 34/32/5
f 34/32/5 6/31/5 30/33/5
f 30/33/5 6/31/5 26/34/5
f 26/34/5 6/31/5 22/35/5
f 22/35/5 6/31/5 18/36/5
f 18/36/5 6/31/5 14/37/5
f 14/37/5 6/31/5 10/38/5
f 10/38/5 6/31/5 7/39/5
f 7/39/5 6/31/5 9/40/5
f 9/40/5 6/31/5 12/41/5
f 9/40/5 12/41/5 13/42/5
f 13/42/5 12/41/5 16/43/5
f 13/42/5 16/43/5 17/44/5
f 17/44/5 16/43/5 20/45/5
f 17/44/5 20/45/5 21/46/5
f 21/46/5 20/45/5 24/47/5
f 21/46/5 24/47/5 28/48/5
f 35/7/5 31/49/5 5/8/5
f 5/8/5 31/49/5 27/50/5
f 5/8/5 27/50/5 23/51/5
f 23/51/5 19/52/5 5/8/5
f 5/8/5 19/52/5 15/53/5
f 5/8/5 15/53/5 11/54/5
f 11/54/5 8/55/5 5/8/5
f 5/8/5 8/55/5 12/41/5
f 5/8/5 12/41/5 6/31/5
f 21/46/5 28/48/5 25/56/5
f 25/56/5 28/48/5 32/57/5
f 25/56/5 32/57/5 29/58/5
f 29/58/5 32/57/5 36/59/5
f 29/58/5 36/59/5 33/60/5
f 33/60/5 36/59/5 38/61/5
f 33/60/5 38/61/5 39/62/5
f 39/62/5 38/61/5 43/63/5
f 43/63/5 38/61/5 42/64/5
f 43/63/5 42/64/5 47/65/5
f 47/65/5 42/64/5 46/66/5
f 47/65/5 46/66/5 51/67/5
f 51/67/5 46/66/5 50/68/5
f 51/67/5 50/68/5 55/69/5
f 55/69/5 50/68/5 54/70/5
f 55/69/5 54/70/5 58/71/5
f 55/69/5 58/71/5 59/72/5
f 59/72/5 58/71/5 62/73/5
f 59/72/5 62/73/5 63/74/5
f 63/74/5 62/73/5 66/19/5
f 63/74/5 66/19/5 67/21/5
f 1/31/6 2/8/6 3/20/6
f 3/20/6 2/8/6 4/10/6
f 101/75/7 35/76/7 103/77/3
f 103/77/3 35/76/7 37/1/3
f 103/77/3 37/1/3 107/78/8
f 107/78/8 37/1/3 41/79/8
f 107/78/8 41/79/8 111/80/9
f 111/80/10 41/79/8 45/81/10
f 111/80/9 45/81/9 115/82/11
f 115/82/11 45/81/9 49/83/11
f 115/82/11 49/83/11 119/84/12
f 119/84/12 49/83/11 53/85/12
f 119/84/12 53/85/12 123/86/13
f 123/86/13 53/85/12 57/87/13
f 123/86/13 57/87/13 127/88/14
f 127/88/14 57/87/13 61/89/14
f 127/88/14 61/89/14 131/90/15
f 131/90/15 61/89/16 65/91/15
f 131/90/15 65/91/15 135/92/2
f 135/92/2 65/91/15 69/93/2
f 135/92/2 69/93/2 132/94/17
f 132/94/17 69/93/2 66/95/17
f 132/94/17 66/95/17 128/96/18
f 128/96/18 66/95/17 62/97/18
f 128/96/19 62/97/19 124/98/20
f 124/98/20 62/97/19 58/99/20
f 124/98/20 58/99/20 120/100/21
f 120/100/21 58/99/20 54/101/21
f 120/100/21 54/101/21 116/102/22
f 116/102/22 54/101/21 50/103/22
f 116/102/22 50/103/22 112/104/23
f 112/104/23 50/103/22 46/105/23
f 112/104/23 46/105/23 108/106/24
f 108/106/24 46/105/25 42/107/24
f 108/106/24 42/107/24 104/108/1
f 104/108/1 42/107/24 38/109/1
f 104/110/1 38/111/1 102/112/26
f 102/112/26 38/111/1 36/113/26
f 102/112/26 36/113/26 98/114/27
f 98/114/28 36/113/26 32/115/28
f 98/114/27 32/115/27 94/116/29
f 94/116/29 32/115/27 28/117/29
f 94/116/29 28/117/29 90/118/30
f 90/118/30 28/117/29 24/119/30
f 90/118/30 24/119/30 86/120/31
f 86/120/32 24/119/30 20/121/32
f 86/120/32 20/121/32 82/122/33
f 82/122/33 20/121/32 16/123/33
f 82/122/34 16/123/34 78/124/35
f 78/124/35 16/123/34 12/125/35
f 78/124/35 12/125/35 74/126/4
f 74/126/4 12/125/35 8/127/4
f 74/126/4 8/127/4 77/128/36
f 77/128/36 8/127/4 11/129/36
f 77/128/36 11/129/36 81/130/37
f 81/130/37 11/129/36 15/131/37
f 81/130/38 15/131/38 85/132/39
f 85/132/39 15/131/38 19/133/39
f 85/132/39 19/133/39 89/134/40
f 89/134/40 19/133/39 23/135/40
f 89/134/40 23/135/40 93/136/41
f 93/136/41 23/135/40 27/137/41
f 93/136/41 27/137/41 97/138/42
f 97/138/42 27/137/41 31/139/42
f 97/138/42 31/139/42 101/75/7
f 101/75/7 31/139/43 35/76/7
f 99/140/7 33/141/7 105/77/3
f 105/77/3 33/141/7 39/1/3
f 105/77/3 39/1/3 109/142/8
f 109/142/8 39/1/3 43/143/8
f 109/142/8 43/143/8 113/144/9
f 113/144/9 43/143/8 47/145/9
f 113/144/9 47/145/9 117/146/11
f 117/146/11 47/145/9 51/147/11
f 117/146/11 51/147/11 121/148/12
f 121/148/12 51/147/11 55/149/12
f 121/148/12 55/149/12 125/150/13
f 125/150/13 55/149/12 59/151/13
f 125/150/13 59/151/13 129/152/14
f 129/152/14 59/151/13 63/153/14
f 129/152/14 63/153/14 133/154/15
f 133/154/15 63/153/14 67/155/15
f 133/154/15 67/155/15 136/156/2
f 136/156/2 67/155/15 70/157/2
f 136/156/2 70/157/2 134/158/17
f 134/158/17 70/157/2 68/159/17
f 134/158/17 68/159/17 130/160/19
f 130/160/18 68/159/17 64/161/18
f 130/160/19 64/161/19 126/162/20
f 126/162/20 64/161/19 60/163/20
f 126/162/20 60/163/20 122/164/21
f 122/164/21 60/163/20 56/165/21
f 122/164/21 56/165/21 118/166/22
f 118/166/22 56/165/21 52/167/22
f 118/166/22 52/167/22 114/168/23
f 114/168/23 52/167/22 48/169/23
f 114/168/23 48/169/23 110/170/24
f 110/170/24 48/169/23 44/171/24
f 110/170/24 44/171/24 106/172/1
f 106/172/1 44/171/24 40/173/1
f 106/174/1 40/175/1 100/176/26
f 100/176/26 40/175/1 34/177/26
f 100/176/26 34/177/26 96/178/27
f 96/178/27 34/177/26 30/179/27
f 96/178/27 30/179/27 92/180/29
f 92/180/29 30/179/27 26/181/29
f 92/180/29 26/181/29 88/182/30
f 88/182/30 26/181/29 22/183/30
f 88/182/30 22/183/30 84/184/32
f 84/184/32 22/183/30 18/185/32
f 84/184/32 18/185/32 80/186/33
f 80/186/33 18/185/32 14/187/33
f 80/186/33 14/187/33 76/188/35
f 76/188/35 14/187/33 10/189/35
f 76/188/35 10/189/35 73/190/4
f 73/190/4 10/189/35 7/191/4
f 73/190/4 7/191/4 75/192/36
f 75/192/36 7/191/4 9/193/36
f 75/192/36 9/193/36 79/194/38
f 79/194/38 9/193/36 13/195/38
f 79/194/38 13/195/38 83/196/39
f 83/196/39 13/195/38 17/197/39
f 83/196/39 17/197/39 87/198/40
f 87/198/40 17/197/39 21/199/40
f 87/198/40 21/199/40 91/200/41
f 91/200/41 21/199/40 25/201/41
f 91/200/41 25/201/41 95/202/42
f 95/202/42 25/201/41 29/203/42
f 95/202/42 29/203/42 99/140/7
f 99/140/7 29/203/42 33/141/7
f 107/204/5 108/205/5 103/206/5
f 103/206/5 108/205/5 104/207/5
f 103/206/5 104/207/5 101/208/5
f 101/208/5 104/207/5 102/209/5
f 101/208/5 102/209/5 97/210/5
f 97/210/5 102/209/5 98/211/5
f 97/210/5 98/211/5 93/212/5
f 93/212/5 98/211/5 94/213/5
f 93/212/5 94/213/5 89/214/5
f 89/214/5 94/213/5 90/215/5
f 89/214/5 90/215/5 85/216/5
f 85/216/5 90/215/5 86/217/5
f 85/216/5 86/217/5 81/218/5
f 81/218/5 86/217/5 82/219/5
f 81/218/5 82/219/5 77/220/5
f 77/220/5 82/219/5 78/221/5
f 77/220/5 78/221/5 74/222/5
f 108/205/5 107/204/5 112/223/5
f 112/223/5 107/204/5 111/224/5
f 112/223/5 111/224/5 116/225/5
f 116/225/5 111/224/5 115/226/5
f 116/225/5 115/226/5 120/227/5
f 120/227/5 115/226/5 119/228/5
f 120/227/5 119/228/5 124/229/5
f 124/229/5 119/228/5 123/230/5
f 124/229/5 123/230/5 128/231/5
f 128/231/5 123/230/5 127/232/5
f 128/231/5 127/232/5 132/233/5
f 132/233/5 127/232/5 131/234/5
f 132/233/5 131/234/5 135/235/5
f 109/236/5 110/237/5 105/238/5
f 105/238/5 110/237/5 106/239/5
f 105/238/5 106/239/5 99/240/5
f 99/240/5 106/239/5 100/241/5
f 99/240/5 100/241/5 95/242/5
f 95/242/5 100/241/5 96/243/5
f 95/242/5 96/243/5 91/244/5
f 91/244/5 96/243/5 92/245/5
f 91/244/5 92/245/5 87/246/5
f 87/246/5 92/245/5 88/247/5
f 87/246/5 88/247/5 83/248/5
f 83/248/5 88/247/5 84/249/5
f 83/248/5 84/249/5 79/250/5
f 79/250/5 84/249/5 80/251/5
f 79/250/5 80/251/5 75/252/5
f 75/252/5 80/251/5 76/253/5
f 75/252/5 76/253/5 73/254/5
f 110/237/5 109/236/5 114/255/5
f 114/255/5 109/236/5 113/256/5
f 114/255/5 113/256/5 118/257/5
f 118/257/5 113/256/5 117/258/5
f 118/257/5 117/258/5 122/259/5
f 122/259/5 117/258/5 121/260/5
f 122/259/5 121/260/5 126/261/5
f 126/261/5 121/260/5 125/262/5
f 126/261/5 125/262/5 130/263/5
f 130/263/5 125/262/5 129/264/5
f 130/263/5 129/264/5 134/265/5
f 134/265/5 129/264/5 133/266/5
f 134/265/5 133/266/5 136/267/5
