<svg width="268" height="80" viewBox="0 0 268 80" fill="none" xmlns="http://www.w3.org/2000/svg">
<rect x="1.5" y="1.5" width="265" height="77" rx="30.5" fill="#FB923C" stroke="white" stroke-width="3"/>
<path d="M27.2191 50V29.56H34.1911C35.6284 29.56 36.8791 29.8307 37.9431 30.372C39.0258 30.9133 39.8564 31.6693 40.4351 32.64C41.0324 33.6107 41.3311 34.7493 41.3311 36.056C41.3311 37.344 41.0324 38.4827 40.4351 39.472C39.8378 40.4427 39.0071 41.1987 37.9431 41.74C36.8791 42.2813 35.6284 42.552 34.1911 42.552H31.4191V50H27.2191ZM31.4191 38.912H34.1911C35.0871 38.912 35.7964 38.6413 36.3191 38.1C36.8604 37.5587 37.1311 36.8773 37.1311 36.056C37.1311 35.2347 36.8604 34.5533 36.3191 34.012C35.7964 33.4707 35.0871 33.2 34.1911 33.2H31.4191V38.912ZM44.0082 50V29.56H48.2082V37.512H52.9122V29.56H57.1122V50H52.9122V41.292H48.2082V50H44.0082ZM67.3492 50.28C65.2959 50.28 63.6626 49.7013 62.4492 48.544C61.2359 47.3867 60.6292 45.8187 60.6292 43.84V35.72C60.6292 33.7227 61.2359 32.1547 62.4492 31.016C63.6626 29.8587 65.2959 29.28 67.3492 29.28C69.4026 29.28 71.0359 29.8587 72.2492 31.016C73.4626 32.1547 74.0692 33.7227 74.0692 35.72V43.84C74.0692 45.8187 73.4626 47.3867 72.2492 48.544C71.0359 49.7013 69.4026 50.28 67.3492 50.28ZM67.3492 46.64C68.1892 46.64 68.8146 46.4253 69.2252 45.996C69.6546 45.548 69.8692 44.9227 69.8692 44.12V35.44C69.8692 34.6187 69.6639 33.9933 69.2532 33.564C68.8426 33.1347 68.2079 32.92 67.3492 32.92C66.4906 32.92 65.8559 33.1347 65.4452 33.564C65.0346 33.9933 64.8292 34.6187 64.8292 35.44V44.12C64.8292 44.9227 65.0346 45.548 65.4452 45.996C65.8746 46.4253 66.5092 46.64 67.3492 46.64ZM82.0383 50V33.34H76.8583V29.56H91.4183V33.34H86.2383V50H82.0383ZM100.927 50.28C98.874 50.28 97.2407 49.7013 96.0273 48.544C94.814 47.3867 94.2073 45.8187 94.2073 43.84V35.72C94.2073 33.7227 94.814 32.1547 96.0273 31.016C97.2407 29.8587 98.874 29.28 100.927 29.28C102.981 29.28 104.614 29.8587 105.827 31.016C107.041 32.1547 107.647 33.7227 107.647 35.72V43.84C107.647 45.8187 107.041 47.3867 105.827 48.544C104.614 49.7013 102.981 50.28 100.927 50.28ZM100.927 46.64C101.767 46.64 102.393 46.4253 102.803 45.996C103.233 45.548 103.447 44.9227 103.447 44.12V35.44C103.447 34.6187 103.242 33.9933 102.831 33.564C102.421 33.1347 101.786 32.92 100.927 32.92C100.069 32.92 99.434 33.1347 99.0233 33.564C98.6127 33.9933 98.4073 34.6187 98.4073 35.44V44.12C98.4073 44.9227 98.6127 45.548 99.0233 45.996C99.4527 46.4253 100.087 46.64 100.927 46.64ZM111.556 50V29.56H124.156V33.2H115.672V37.792H123.176V41.264H115.672V46.36H124.156V50H111.556ZM129.325 50V29.56H133.525V46.22H141.785V50H129.325ZM145.135 50V29.56H157.735V33.2H149.251V37.792H156.755V41.264H149.251V46.36H157.735V50H145.135ZM168.308 50.28C166.945 50.28 165.75 50.028 164.724 49.524C163.697 49.0013 162.894 48.2827 162.316 47.368C161.756 46.4347 161.476 45.352 161.476 44.12V35.44C161.476 34.1893 161.756 33.1067 162.316 32.192C162.894 31.2773 163.697 30.568 164.724 30.064C165.75 29.5413 166.945 29.28 168.308 29.28C169.689 29.28 170.884 29.5413 171.892 30.064C172.918 30.568 173.712 31.2773 174.272 32.192C174.85 33.1067 175.14 34.1893 175.14 35.44H170.94C170.94 34.6187 170.706 33.9933 170.24 33.564C169.792 33.1347 169.148 32.92 168.308 32.92C167.468 32.92 166.814 33.1347 166.348 33.564C165.9 33.9933 165.676 34.6187 165.676 35.44V44.12C165.676 44.9227 165.9 45.548 166.348 45.996C166.814 46.4253 167.468 46.64 168.308 46.64C169.148 46.64 169.792 46.4253 170.24 45.996C170.706 45.548 170.94 44.9227 170.94 44.12H175.14C175.14 45.352 174.85 46.4347 174.272 47.368C173.712 48.2827 172.918 49.0013 171.892 49.524C170.884 50.028 169.689 50.28 168.308 50.28ZM182.773 50V33.34H177.593V29.56H192.153V33.34H186.973V50H182.773ZM195.11 50V29.56H201.662C203.118 29.56 204.378 29.812 205.442 30.316C206.506 30.82 207.327 31.5387 207.906 32.472C208.503 33.4053 208.802 34.5067 208.802 35.776C208.802 37.1013 208.475 38.2867 207.822 39.332C207.187 40.3773 206.319 41.1333 205.218 41.6L209.082 50H204.518L201.214 42.272H199.254V50H195.11ZM199.254 38.632H201.662C202.595 38.632 203.314 38.3987 203.818 37.932C204.34 37.4653 204.602 36.812 204.602 35.972C204.602 35.0947 204.34 34.4133 203.818 33.928C203.314 33.4427 202.595 33.2 201.662 33.2H199.254V38.632ZM212.291 50V46.22H216.351V33.34H212.291V29.56H224.611V33.34H220.551V46.22H224.611V50H212.291ZM235.464 50.28C234.101 50.28 232.907 50.028 231.88 49.524C230.853 49.0013 230.051 48.2827 229.472 47.368C228.912 46.4347 228.632 45.352 228.632 44.12V35.44C228.632 34.1893 228.912 33.1067 229.472 32.192C230.051 31.2773 230.853 30.568 231.88 30.064C232.907 29.5413 234.101 29.28 235.464 29.28C236.845 29.28 238.04 29.5413 239.048 30.064C240.075 30.568 240.868 31.2773 241.428 32.192C242.007 33.1067 242.296 34.1893 242.296 35.44H238.096C238.096 34.6187 237.863 33.9933 237.396 33.564C236.948 33.1347 236.304 32.92 235.464 32.92C234.624 32.92 233.971 33.1347 233.504 33.564C233.056 33.9933 232.832 34.6187 232.832 35.44V44.12C232.832 44.9227 233.056 45.548 233.504 45.996C233.971 46.4253 234.624 46.64 235.464 46.64C236.304 46.64 236.948 46.4253 237.396 45.996C237.863 45.548 238.096 44.9227 238.096 44.12H242.296C242.296 45.352 242.007 46.4347 241.428 47.368C240.868 48.2827 240.075 49.0013 239.048 49.524C238.04 50.028 236.845 50.28 235.464 50.28Z" fill="white"/>
</svg>
